<?xml version="1.0" encoding="UTF-8"?>
<svg height="200"><g height="130" width="30" transform="translate(0,0)"><rect y="2" x="5" rx="0" width="20" height="5" fill="black" /><rect y="3" x="6" rx="0" width="0.0" height="3" fill="white" /><rect y="7" x="5" rx="0" width="20" height="5" fill="black" /><rect y="8" x="6" rx="0" width="1.6919999" height="3" fill="white" /><rect y="12" x="5" rx="0" width="20" height="5" fill="black" /><rect y="13" x="6" rx="0" width="18.0" height="3" fill="white" /><text y="97" x="2">0.5</text><g transform="translate(15,80)"><g stroke="green" transform="rotate(60.600006)"><line x2="0" y2="10" x1="0" y1="0" stroke-width="3" /><line x2="10" y2="0" x1="0" y1="0" stroke-width="3" /></g></g><rect x="3" y="80.0" fill="blue" width="25" height="0.0" /><text x="5" y="70">0.0</text><text x="2" y="120">13/14</text></g><g height="130" width="30" transform="translate(30,0)"><rect y="2" x="5" rx="0" width="20" height="5" fill="black" /><rect y="3" x="6" rx="0" width="0.0" height="3" fill="white" /><rect y="7" x="5" rx="0" width="20" height="5" fill="black" /><rect y="8" x="6" rx="0" width="11.052001" height="3" fill="white" /><rect y="12" x="5" rx="0" width="20" height="5" fill="black" /><rect y="13" x="6" rx="0" width="18.0" height="3" fill="white" /><text y="97" x="2">0.5</text><g transform="translate(15,80)"><g stroke="green" transform="rotate(84.7)"><line x2="0" y2="10" x1="0" y1="0" stroke-width="3" /><line x2="10" y2="0" x1="0" y1="0" stroke-width="3" /></g></g><rect x="3" y="80.0" fill="blue" width="25" height="0.0" /><text x="5" y="70">0.0</text><text x="2" y="120">14/14</text></g><g height="130" width="30" transform="translate(60,0)"><rect y="2" x="5" rx="0" width="20" height="5" fill="black" /><rect y="3" x="6" rx="0" width="0.0" height="3" fill="white" /><rect y="7" x="5" rx="0" width="20" height="5" fill="black" /><rect y="8" x="6" rx="0" width="14.598" height="3" fill="white" /><rect y="12" x="5" rx="0" width="20" height="5" fill="black" /><rect y="13" x="6" rx="0" width="18.0" height="3" fill="white" /><text y="97" x="2">1.1</text><g transform="translate(15,80)"><g stroke="green" transform="rotate(114.100006)"><line x2="0" y2="10" x1="0" y1="0" stroke-width="3" /><line x2="10" y2="0" x1="0" y1="0" stroke-width="3" /></g></g><rect x="3" y="80.0" fill="blue" width="25" height="0.0" /><text x="5" y="70">0.0</text><text x="2" y="120">15/14</text></g><g height="130" width="30" transform="translate(90,0)"><rect y="2" x="5" rx="0" width="20" height="5" fill="black" /><rect y="3" x="6" rx="0" width="0.0" height="3" fill="white" /><rect y="7" x="5" rx="0" width="20" height="5" fill="black" /><rect y="8" x="6" rx="0" width="17.352001" height="3" fill="white" /><rect y="12" x="5" rx="0" width="20" height="5" fill="black" /><rect y="13" x="6" rx="0" width="18.0" height="3" fill="white" /><text y="97" x="2">0.2</text><g transform="translate(15,80)"><g stroke="green" transform="rotate(74.8)"><line x2="0" y2="10" x1="0" y1="0" stroke-width="3" /><line x2="10" y2="0" x1="0" y1="0" stroke-width="3" /></g></g><rect x="3" y="80.0" fill="blue" width="25" height="0.0" /><text x="5" y="70">0.0</text><text x="2" y="120">16/14</text></g><g height="130" width="30" transform="translate(120,0)"><rect y="2" x="5" rx="0" width="20" height="5" fill="black" /><rect y="3" x="6" rx="0" width="0.0" height="3" fill="white" /><rect y="7" x="5" rx="0" width="20" height="5" fill="black" /><rect y="8" x="6" rx="0" width="3.1139998" height="3" fill="white" /><rect y="12" x="5" rx="0" width="20" height="5" fill="black" /><rect y="13" x="6" rx="0" width="18.0" height="3" fill="white" /><text y="97" x="2">0.4</text><g transform="translate(15,80)"><g stroke="green" transform="rotate(40.600006)"><line x2="0" y2="10" x1="0" y1="0" stroke-width="3" /><line x2="10" y2="0" x1="0" y1="0" stroke-width="3" /></g></g><rect x="3" y="80.0" fill="blue" width="25" height="0.0" /><text x="5" y="70">0.0</text><text x="2" y="120">17/14</text></g><g height="130" width="30" transform="translate(150,0)"><rect y="2" x="5" rx="0" width="20" height="5" fill="black" /><rect y="3" x="6" rx="0" width="0.0" height="3" fill="white" /><rect y="7" x="5" rx="0" width="20" height="5" fill="black" /><rect y="8" x="6" rx="0" width="0.036000002" height="3" fill="white" /><rect y="12" x="5" rx="0" width="20" height="5" fill="black" /><rect y="13" x="6" rx="0" width="18.0" height="3" fill="white" /><text y="97" x="2">0.1</text><g transform="translate(15,80)"><g stroke="green" transform="rotate(43.399994)"><line x2="0" y2="10" x1="0" y1="0" stroke-width="3" /><line x2="10" y2="0" x1="0" y1="0" stroke-width="3" /></g></g><rect x="3" y="80.0" fill="blue" width="25" height="0.0" /><text x="5" y="70">0.0</text><text x="2" y="120">18/14</text></g><g height="130" width="30" transform="translate(180,0)"><rect y="2" x="5" rx="0" width="20" height="5" fill="black" /><rect y="3" x="6" rx="0" width="8.693999" height="3" fill="white" /><rect y="7" x="5" rx="0" width="20" height="5" fill="black" /><rect y="8" x="6" rx="0" width="0.0" height="3" fill="white" /><rect y="12" x="5" rx="0" width="20" height="5" fill="black" /><rect y="13" x="6" rx="0" width="18.0" height="3" fill="white" /><text y="97" x="2">0.3</text><g transform="translate(15,80)"><g stroke="green" transform="rotate(-19.300003)"><line x2="0" y2="10" x1="0" y1="0" stroke-width="3" /><line x2="10" y2="0" x1="0" y1="0" stroke-width="3" /></g></g><rect x="3" y="80.0" fill="blue" width="25" height="0.0" /><text x="5" y="70">0.0</text><text x="2" y="120">19/14</text></g><g height="130" width="30" transform="translate(210,0)"><rect y="2" x="5" rx="0" width="20" height="5" fill="black" /><rect y="3" x="6" rx="0" width="13.86" height="3" fill="white" /><rect y="7" x="5" rx="0" width="20" height="5" fill="black" /><rect y="8" x="6" rx="0" width="0.39600003" height="3" fill="white" /><rect y="12" x="5" rx="0" width="20" height="5" fill="black" /><rect y="13" x="6" rx="0" width="18.0" height="3" fill="white" /><text y="97" x="2">0.4</text><g transform="translate(15,80)"><g stroke="green" transform="rotate(-39.9)"><line x2="0" y2="10" x1="0" y1="0" stroke-width="3" /><line x2="10" y2="0" x1="0" y1="0" stroke-width="3" /></g></g><rect x="3" y="80.0" fill="blue" width="25" height="0.0" /><text x="5" y="70">0.0</text><text x="2" y="120">20/14</text></g><g height="130" width="30" transform="translate(240,0)"><rect y="2" x="5" rx="0" width="20" height="5" fill="black" /><rect y="3" x="6" rx="0" width="6.6239996" height="3" fill="white" /><rect y="7" x="5" rx="0" width="20" height="5" fill="black" /><rect y="8" x="6" rx="0" width="17.442001" height="3" fill="white" /><rect y="12" x="5" rx="0" width="20" height="5" fill="black" /><rect y="13" x="6" rx="0" width="18.0" height="3" fill="white" /><text y="97" x="2">1.1</text><g transform="translate(15,80)"><g stroke="green" transform="rotate(-21.099998)"><line x2="0" y2="10" x1="0" y1="0" stroke-width="3" /><line x2="10" y2="0" x1="0" y1="0" stroke-width="3" /></g></g><rect x="3" y="80.0" fill="blue" width="25" height="0.0" /><text x="5" y="70">0.0</text><text x="2" y="120">21/14</text></g><g height="130" width="30" transform="translate(270,0)"><rect y="2" x="5" rx="0" width="20" height="5" fill="black" /><rect y="3" x="6" rx="0" width="0.0" height="3" fill="white" /><rect y="7" x="5" rx="0" width="20" height="5" fill="black" /><rect y="8" x="6" rx="0" width="9.054" height="3" fill="white" /><rect y="12" x="5" rx="0" width="20" height="5" fill="black" /><rect y="13" x="6" rx="0" width="18.0" height="3" fill="white" /><text y="97" x="2">1.4</text><g transform="translate(15,80)"><g stroke="green" transform="rotate(-23.199997)"><line x2="0" y2="10" x1="0" y1="0" stroke-width="3" /><line x2="10" y2="0" x1="0" y1="0" stroke-width="3" /></g></g><rect x="3" y="80.0" fill="blue" width="25" height="0.0" /><text x="5" y="70">0.0</text><text x="2" y="120">22/14</text></g><g height="130" width="30" transform="translate(300,0)"><rect y="2" x="5" rx="0" width="20" height="5" fill="black" /><rect y="3" x="6" rx="0" width="0.0" height="3" fill="white" /><rect y="7" x="5" rx="0" width="20" height="5" fill="black" /><rect y="8" x="6" rx="0" width="2.538" height="3" fill="white" /><rect y="12" x="5" rx="0" width="20" height="5" fill="black" /><rect y="13" x="6" rx="0" width="18.0" height="3" fill="white" /><text y="97" x="2">1.6</text><g transform="translate(15,80)"><g stroke="green" transform="rotate(-19.800003)"><line x2="0" y2="10" x1="0" y1="0" stroke-width="3" /><line x2="10" y2="0" x1="0" y1="0" stroke-width="3" /></g></g><rect x="3" y="80.0" fill="blue" width="25" height="0.0" /><text x="5" y="70">0.0</text><text x="2" y="120">23/14</text></g><g height="130" width="30" transform="translate(330,0)"><rect y="2" x="5" rx="0" width="20" height="5" fill="black" /><rect y="3" x="6" rx="0" width="0.0" height="3" fill="white" /><rect y="7" x="5" rx="0" width="20" height="5" fill="black" /><rect y="8" x="6" rx="0" width="0.342" height="3" fill="white" /><rect y="12" x="5" rx="0" width="20" height="5" fill="black" /><rect y="13" x="6" rx="0" width="18.0" height="3" fill="white" /><text y="97" x="2">2.0</text><g transform="translate(15,80)"><g stroke="green" transform="rotate(-42.0)"><line x2="0" y2="10" x1="0" y1="0" stroke-width="3" /><line x2="10" y2="0" x1="0" y1="0" stroke-width="3" /></g></g><rect x="3" y="80.0" fill="blue" width="25" height="0.0" /><text x="5" y="70">0.0</text><text x="2" y="120">0/15</text></g><g height="130" width="30" transform="translate(360,0)"><rect y="2" x="5" rx="0" width="20" height="5" fill="black" /><rect y="3" x="6" rx="0" width="0.0" height="3" fill="white" /><rect y="7" x="5" rx="0" width="20" height="5" fill="black" /><rect y="8" x="6" rx="0" width="0.036000002" height="3" fill="white" /><rect y="12" x="5" rx="0" width="20" height="5" fill="black" /><rect y="13" x="6" rx="0" width="18.0" height="3" fill="white" /><text y="97" x="2">1.7</text><g transform="translate(15,80)"><g stroke="green" transform="rotate(-58.3)"><line x2="0" y2="10" x1="0" y1="0" stroke-width="3" /><line x2="10" y2="0" x1="0" y1="0" stroke-width="3" /></g></g><rect x="3" y="80.0" fill="blue" width="25" height="0.0" /><text x="5" y="70">0.0</text><text x="2" y="120">1/15</text></g><g height="130" width="30" transform="translate(390,0)"><rect y="2" x="5" rx="0" width="20" height="5" fill="black" /><rect y="3" x="6" rx="0" width="0.0" height="3" fill="white" /><rect y="7" x="5" rx="0" width="20" height="5" fill="black" /><rect y="8" x="6" rx="0" width="0.0" height="3" fill="white" /><rect y="12" x="5" rx="0" width="20" height="5" fill="black" /><rect y="13" x="6" rx="0" width="18.0" height="3" fill="white" /><text y="97" x="2">2.0</text><g transform="translate(15,80)"><g stroke="green" transform="rotate(-56.6)"><line x2="0" y2="10" x1="0" y1="0" stroke-width="3" /><line x2="10" y2="0" x1="0" y1="0" stroke-width="3" /></g></g><rect x="3" y="80.0" fill="blue" width="25" height="0.0" /><text x="5" y="70">0.0</text><text x="2" y="120">2/15</text></g><g height="130" width="30" transform="translate(420,0)"><rect y="2" x="5" rx="0" width="20" height="5" fill="black" /><rect y="3" x="6" rx="0" width="0.0" height="3" fill="white" /><rect y="7" x="5" rx="0" width="20" height="5" fill="black" /><rect y="8" x="6" rx="0" width="0.0" height="3" fill="white" /><rect y="12" x="5" rx="0" width="20" height="5" fill="black" /><rect y="13" x="6" rx="0" width="18.0" height="3" fill="white" /><text y="97" x="2">2.0</text><g transform="translate(15,80)"><g stroke="green" transform="rotate(-60.8)"><line x2="0" y2="10" x1="0" y1="0" stroke-width="3" /><line x2="10" y2="0" x1="0" y1="0" stroke-width="3" /></g></g><rect x="3" y="80.0" fill="blue" width="25" height="0.0" /><text x="5" y="70">0.0</text><text x="2" y="120">3/15</text></g><g height="130" width="30" transform="translate(450,0)"><rect y="2" x="5" rx="0" width="20" height="5" fill="black" /><rect y="3" x="6" rx="0" width="0.0" height="3" fill="white" /><rect y="7" x="5" rx="0" width="20" height="5" fill="black" /><rect y="8" x="6" rx="0" width="0.0" height="3" fill="white" /><rect y="12" x="5" rx="0" width="20" height="5" fill="black" /><rect y="13" x="6" rx="0" width="18.0" height="3" fill="white" /><text y="97" x="2">2.2</text><g transform="translate(15,80)"><g stroke="green" transform="rotate(-58.4)"><line x2="0" y2="10" x1="0" y1="0" stroke-width="3" /><line x2="10" y2="0" x1="0" y1="0" stroke-width="3" /></g></g><rect x="3" y="80.0" fill="blue" width="25" height="0.0" /><text x="5" y="70">0.0</text><text x="2" y="120">4/15</text></g><g height="130" width="30" transform="translate(480,0)"><rect y="2" x="5" rx="0" width="20" height="5" fill="black" /><rect y="3" x="6" rx="0" width="0.0" height="3" fill="white" /><rect y="7" x="5" rx="0" width="20" height="5" fill="black" /><rect y="8" x="6" rx="0" width="0.0" height="3" fill="white" /><rect y="12" x="5" rx="0" width="20" height="5" fill="black" /><rect y="13" x="6" rx="0" width="18.0" height="3" fill="white" /><text y="97" x="2">2.6</text><g transform="translate(15,80)"><g stroke="green" transform="rotate(-52.9)"><line x2="0" y2="10" x1="0" y1="0" stroke-width="3" /><line x2="10" y2="0" x1="0" y1="0" stroke-width="3" /></g></g><rect x="3" y="80.0" fill="blue" width="25" height="0.0" /><text x="5" y="70">0.0</text><text x="2" y="120">5/15</text></g><g height="130" width="30" transform="translate(510,0)"><rect y="2" x="5" rx="0" width="20" height="5" fill="black" /><rect y="3" x="6" rx="0" width="0.0" height="3" fill="white" /><rect y="7" x="5" rx="0" width="20" height="5" fill="black" /><rect y="8" x="6" rx="0" width="0.0" height="3" fill="white" /><rect y="12" x="5" rx="0" width="20" height="5" fill="black" /><rect y="13" x="6" rx="0" width="18.0" height="3" fill="white" /><text y="97" x="2">2.1</text><g transform="translate(15,80)"><g stroke="green" transform="rotate(-39.4)"><line x2="0" y2="10" x1="0" y1="0" stroke-width="3" /><line x2="10" y2="0" x1="0" y1="0" stroke-width="3" /></g></g><rect x="3" y="80.0" fill="blue" width="25" height="0.0" /><text x="5" y="70">0.0</text><text x="2" y="120">6/15</text></g><g height="130" width="30" transform="translate(540,0)"><rect y="2" x="5" rx="0" width="20" height="5" fill="black" /><rect y="3" x="6" rx="0" width="0.0" height="3" fill="white" /><rect y="7" x="5" rx="0" width="20" height="5" fill="black" /><rect y="8" x="6" rx="0" width="0.0" height="3" fill="white" /><rect y="12" x="5" rx="0" width="20" height="5" fill="black" /><rect y="13" x="6" rx="0" width="18.0" height="3" fill="white" /><text y="97" x="2">2.1</text><g transform="translate(15,80)"><g stroke="green" transform="rotate(-31.2)"><line x2="0" y2="10" x1="0" y1="0" stroke-width="3" /><line x2="10" y2="0" x1="0" y1="0" stroke-width="3" /></g></g><rect x="3" y="80.0" fill="blue" width="25" height="0.0" /><text x="5" y="70">0.0</text><text x="2" y="120">7/15</text></g><g height="130" width="30" transform="translate(570,0)"><rect y="2" x="5" rx="0" width="20" height="5" fill="black" /><rect y="3" x="6" rx="0" width="0.0" height="3" fill="white" /><rect y="7" x="5" rx="0" width="20" height="5" fill="black" /><rect y="8" x="6" rx="0" width="0.0" height="3" fill="white" /><rect y="12" x="5" rx="0" width="20" height="5" fill="black" /><rect y="13" x="6" rx="0" width="18.0" height="3" fill="white" /><text y="97" x="2">1.2</text><g transform="translate(15,80)"><g stroke="green" transform="rotate(-5.5)"><line x2="0" y2="10" x1="0" y1="0" stroke-width="3" /><line x2="10" y2="0" x1="0" y1="0" stroke-width="3" /></g></g><rect x="3" y="80.0" fill="blue" width="25" height="0.0" /><text x="5" y="70">0.0</text><text x="2" y="120">8/15</text></g><g height="130" width="30" transform="translate(600,0)"><rect y="2" x="5" rx="0" width="20" height="5" fill="black" /><rect y="3" x="6" rx="0" width="0.0" height="3" fill="white" /><rect y="7" x="5" rx="0" width="20" height="5" fill="black" /><rect y="8" x="6" rx="0" width="0.0" height="3" fill="white" /><rect y="12" x="5" rx="0" width="20" height="5" fill="black" /><rect y="13" x="6" rx="0" width="17.226" height="3" fill="white" /><text y="97" x="2">0.4</text><g transform="translate(15,80)"><g stroke="green" transform="rotate(12.400002)"><line x2="0" y2="10" x1="0" y1="0" stroke-width="3" /><line x2="10" y2="0" x1="0" y1="0" stroke-width="3" /></g></g><rect x="3" y="80.0" fill="blue" width="25" height="0.0" /><text x="5" y="70">0.0</text><text x="2" y="120">9/15</text></g><g height="130" width="30" transform="translate(630,0)"><rect y="2" x="5" rx="0" width="20" height="5" fill="black" /><rect y="3" x="6" rx="0" width="0.0" height="3" fill="white" /><rect y="7" x="5" rx="0" width="20" height="5" fill="black" /><rect y="8" x="6" rx="0" width="0.0" height="3" fill="white" /><rect y="12" x="5" rx="0" width="20" height="5" fill="black" /><rect y="13" x="6" rx="0" width="1.062" height="3" fill="white" /><text y="97" x="2">1.0</text><g transform="translate(15,80)"><g stroke="green" transform="rotate(127.7)"><line x2="0" y2="10" x1="0" y1="0" stroke-width="3" /><line x2="10" y2="0" x1="0" y1="0" stroke-width="3" /></g></g><rect x="3" y="80.0" fill="blue" width="25" height="0.0" /><text x="5" y="70">0.0</text><text x="2" y="120">10/15</text></g><g height="130" width="30" transform="translate(660,0)"><rect y="2" x="5" rx="0" width="20" height="5" fill="black" /><rect y="3" x="6" rx="0" width="0.0" height="3" fill="white" /><rect y="7" x="5" rx="0" width="20" height="5" fill="black" /><rect y="8" x="6" rx="0" width="0.0" height="3" fill="white" /><rect y="12" x="5" rx="0" width="20" height="5" fill="black" /><rect y="13" x="6" rx="0" width="0.19800001" height="3" fill="white" /><text y="97" x="2">1.5</text><g transform="translate(15,80)"><g stroke="green" transform="rotate(109.3)"><line x2="0" y2="10" x1="0" y1="0" stroke-width="3" /><line x2="10" y2="0" x1="0" y1="0" stroke-width="3" /></g></g><rect x="3" y="80.0" fill="blue" width="25" height="0.0" /><text x="5" y="70">0.0</text><text x="2" y="120">11/15</text></g><g height="130" width="30" transform="translate(690,0)"><rect y="2" x="5" rx="0" width="20" height="5" fill="black" /><rect y="3" x="6" rx="0" width="0.0" height="3" fill="white" /><rect y="7" x="5" rx="0" width="20" height="5" fill="black" /><rect y="8" x="6" rx="0" width="0.882" height="3" fill="white" /><rect y="12" x="5" rx="0" width="20" height="5" fill="black" /><rect y="13" x="6" rx="0" width="14.022" height="3" fill="white" /><text y="97" x="2">2.3</text><g transform="translate(15,80)"><g stroke="green" transform="rotate(95.0)"><line x2="0" y2="10" x1="0" y1="0" stroke-width="3" /><line x2="10" y2="0" x1="0" y1="0" stroke-width="3" /></g></g><rect x="3" y="80.0" fill="blue" width="25" height="0.0" /><text x="5" y="70">0.0</text><text x="2" y="120">12/15</text></g><g transform="translate(0,15)"><polyline points="15,17 45,17 75,17 105,18 135,18 165,19 195,19 225,19 255,19 285,19 315,19 345,18 375,18 405,18 435,19 465,19 495,19 525,19 555,19 585,16 615,14 645,12 675,10 705,8" stroke="red" fill="none" /><rect y="25" x="0" width="720" height="0.5" stroke="black" /><rect y="8.200001" x="0" width="720" height="0.2" stroke="green" /><text y="13.200001" x="725">max 5.6c</text></g></svg>
