<?xml version="1.0" encoding="UTF-8"?>
<svg height="200"><g height="400" width="30" transform="translate(0,0)"><rect y="2" x="5" rx="0" width="20" height="5" fill="black" /><rect y="3" x="6" rx="0" width="0.0" height="3" fill="white" /><rect y="7" x="5" rx="0" width="20" height="5" fill="black" /><rect y="8" x="6" rx="0" width="9.863999" height="3" fill="white" /><rect y="12" x="5" rx="0" width="20" height="5" fill="black" /><rect y="13" x="6" rx="0" width="0.0" height="3" fill="white" /><text y="170" x="2">2.4</text><g transform="translate(15,150)"><g stroke="green" transform="rotate(315.0)"><line x2="0" y2="10" x1="0" y1="0" stroke-width="3" /><line x2="10" y2="0" x1="0" y1="0" stroke-width="3" /></g></g><rect x="3" y="144.2" fill="blue" width="25" height="0.8" /><text x="5" y="140">0.4</text><text x="2" y="190">21/1</text></g><g height="400" width="30" transform="translate(30,0)"><rect y="2" x="5" rx="0" width="20" height="5" fill="black" /><rect y="3" x="6" rx="0" width="0.0" height="3" fill="white" /><rect y="7" x="5" rx="0" width="20" height="5" fill="black" /><rect y="8" x="6" rx="0" width="0.864" height="3" fill="white" /><rect y="12" x="5" rx="0" width="20" height="5" fill="black" /><rect y="13" x="6" rx="0" width="0.0" height="3" fill="white" /><text y="170" x="2">2.2</text><g transform="translate(15,150)"><g stroke="green" transform="rotate(476.9)"><line x2="0" y2="10" x1="0" y1="0" stroke-width="3" /><line x2="10" y2="0" x1="0" y1="0" stroke-width="3" /></g></g><rect x="3" y="144.8" fill="blue" width="25" height="0.2" /><text x="5" y="140">0.1</text><text x="2" y="190">22/1</text></g><g height="400" width="30" transform="translate(60,0)"><rect y="2" x="5" rx="0" width="20" height="5" fill="black" /><rect y="3" x="6" rx="0" width="0.36" height="3" fill="white" /><rect y="7" x="5" rx="0" width="20" height="5" fill="black" /><rect y="8" x="6" rx="0" width="0.09" height="3" fill="white" /><rect y="12" x="5" rx="0" width="20" height="5" fill="black" /><rect y="13" x="6" rx="0" width="0.0" height="3" fill="white" /><text y="170" x="2">2.1</text><g transform="translate(15,150)"><g stroke="green" transform="rotate(464.1)"><line x2="0" y2="10" x1="0" y1="0" stroke-width="3" /><line x2="10" y2="0" x1="0" y1="0" stroke-width="3" /></g></g><rect x="3" y="144.8" fill="blue" width="25" height="0.2" /><text x="5" y="140">0.1</text><text x="2" y="190">23/1</text></g><g height="400" width="30" transform="translate(90,0)"><rect y="2" x="5" rx="0" width="20" height="5" fill="black" /><rect y="3" x="6" rx="0" width="0.0" height="3" fill="white" /><rect y="7" x="5" rx="0" width="20" height="5" fill="black" /><rect y="8" x="6" rx="0" width="11.052001" height="3" fill="white" /><rect y="12" x="5" rx="0" width="20" height="5" fill="black" /><rect y="13" x="6" rx="0" width="0.0" height="3" fill="white" /><text y="170" x="2">1.7</text><g transform="translate(15,150)"><g stroke="green" transform="rotate(449.6)"><line x2="0" y2="10" x1="0" y1="0" stroke-width="3" /><line x2="10" y2="0" x1="0" y1="0" stroke-width="3" /></g></g><rect x="3" y="144.2" fill="blue" width="25" height="0.8" /><text x="5" y="140">0.4</text><text x="2" y="190">0/2</text></g><g transform="translate(0,12)"><rect y="60" x="0" width="120" height="0.5" stroke="black" /><rect y="28.5" x="0" width="120" height="0.2" stroke="green" /><text y="33.5" x="125">max 10.5c</text><rect y="105.3" x="0" width="120" height="0.2" stroke="green" /><text y="110.3" x="125">min -15.1c</text><polyline points="15,28 45,72 75,105 105,77" stroke="red" fill="none" /></g></svg>
