<?xml version="1.0" encoding="UTF-8"?>
<svg height="200"><g height="130" width="30" transform="translate(0,0)"><rect y="2" x="5" rx="0" width="20" height="5" fill="black" /><rect y="3" x="6" rx="0" width="0.0" height="3" fill="white" /><rect y="7" x="5" rx="0" width="20" height="5" fill="black" /><rect y="8" x="6" rx="0" width="9.863999" height="3" fill="white" /><rect y="12" x="5" rx="0" width="20" height="5" fill="black" /><rect y="13" x="6" rx="0" width="0.0" height="3" fill="white" /><text y="97" x="2">2.4</text><g transform="translate(15,80)"><g stroke="green" transform="rotate(315.0)"><line x2="0" y2="10" x1="0" y1="0" stroke-width="3" /><line x2="10" y2="0" x1="0" y1="0" stroke-width="3" /></g></g><rect x="3" y="79.2" fill="blue" width="25" height="0.8" /><text x="5" y="70">0.4</text><text x="2" y="120">21/1</text></g><g height="130" width="30" transform="translate(30,0)"><rect y="2" x="5" rx="0" width="20" height="5" fill="black" /><rect y="3" x="6" rx="0" width="0.0" height="3" fill="white" /><rect y="7" x="5" rx="0" width="20" height="5" fill="black" /><rect y="8" x="6" rx="0" width="0.864" height="3" fill="white" /><rect y="12" x="5" rx="0" width="20" height="5" fill="black" /><rect y="13" x="6" rx="0" width="0.0" height="3" fill="white" /><text y="97" x="2">2.2</text><g transform="translate(15,80)"><g stroke="green" transform="rotate(476.9)"><line x2="0" y2="10" x1="0" y1="0" stroke-width="3" /><line x2="10" y2="0" x1="0" y1="0" stroke-width="3" /></g></g><rect x="3" y="79.8" fill="blue" width="25" height="0.2" /><text x="5" y="70">0.1</text><text x="2" y="120">22/1</text></g><g height="130" width="30" transform="translate(60,0)"><rect y="2" x="5" rx="0" width="20" height="5" fill="black" /><rect y="3" x="6" rx="0" width="0.36" height="3" fill="white" /><rect y="7" x="5" rx="0" width="20" height="5" fill="black" /><rect y="8" x="6" rx="0" width="0.09" height="3" fill="white" /><rect y="12" x="5" rx="0" width="20" height="5" fill="black" /><rect y="13" x="6" rx="0" width="0.0" height="3" fill="white" /><text y="97" x="2">2.1</text><g transform="translate(15,80)"><g stroke="green" transform="rotate(464.1)"><line x2="0" y2="10" x1="0" y1="0" stroke-width="3" /><line x2="10" y2="0" x1="0" y1="0" stroke-width="3" /></g></g><rect x="3" y="79.8" fill="blue" width="25" height="0.2" /><text x="5" y="70">0.1</text><text x="2" y="120">23/1</text></g><g height="130" width="30" transform="translate(90,0)"><rect y="2" x="5" rx="0" width="20" height="5" fill="black" /><rect y="3" x="6" rx="0" width="0.0" height="3" fill="white" /><rect y="7" x="5" rx="0" width="20" height="5" fill="black" /><rect y="8" x="6" rx="0" width="11.052001" height="3" fill="white" /><rect y="12" x="5" rx="0" width="20" height="5" fill="black" /><rect y="13" x="6" rx="0" width="0.0" height="3" fill="white" /><text y="97" x="2">1.7</text><g transform="translate(15,80)"><g stroke="green" transform="rotate(449.6)"><line x2="0" y2="10" x1="0" y1="0" stroke-width="3" /><line x2="10" y2="0" x1="0" y1="0" stroke-width="3" /></g></g><rect x="3" y="79.2" fill="blue" width="25" height="0.8" /><text x="5" y="70">0.4</text><text x="2" y="120">0/2</text></g><g transform="translate(0,15)"><polyline points="15,35 45,37 75,40 105,42" stroke="red" fill="none" /><rect y="25" x="0" width="120" height="0.5" stroke="black" /><rect y="42.1" x="0" width="120" height="0.2" stroke="green" /><text y="47.1" x="125">min -5.7c</text></g></svg>
