<?xml version="1.0" encoding="UTF-8"?>
<svg height="200"><g height="400" width="30" transform="translate(0,0)"><rect y="2" x="5" rx="0" width="20" height="5" fill="black" /><rect y="3" x="6" rx="0" width="0.0" height="3" fill="white" /><rect y="7" x="5" rx="0" width="20" height="5" fill="black" /><rect y="8" x="6" rx="0" width="0.0" height="3" fill="white" /><rect y="12" x="5" rx="0" width="20" height="5" fill="black" /><rect y="13" x="6" rx="0" width="0.0" height="3" fill="white" /><text y="170" x="2">0.4</text><g transform="translate(15,150)"><g stroke="green" transform="rotate(374.7)"><line x2="0" y2="10" x1="0" y1="0" stroke-width="3" /><line x2="10" y2="0" x1="0" y1="0" stroke-width="3" /></g></g><rect x="3" y="145.0" fill="blue" width="25" height="0.0" /><text x="5" y="140">0.0</text><text x="2" y="190">16/15</text></g><g height="400" width="30" transform="translate(30,0)"><rect y="2" x="5" rx="0" width="20" height="5" fill="black" /><rect y="3" x="6" rx="0" width="0.0" height="3" fill="white" /><rect y="7" x="5" rx="0" width="20" height="5" fill="black" /><rect y="8" x="6" rx="0" width="0.0" height="3" fill="white" /><rect y="12" x="5" rx="0" width="20" height="5" fill="black" /><rect y="13" x="6" rx="0" width="14.634" height="3" fill="white" /><text y="170" x="2">1.3</text><g transform="translate(15,150)"><g stroke="green" transform="rotate(386.9)"><line x2="0" y2="10" x1="0" y1="0" stroke-width="3" /><line x2="10" y2="0" x1="0" y1="0" stroke-width="3" /></g></g><rect x="3" y="145.0" fill="blue" width="25" height="0.0" /><text x="5" y="140">0.0</text><text x="2" y="190">17/15</text></g><g height="400" width="30" transform="translate(60,0)"><rect y="2" x="5" rx="0" width="20" height="5" fill="black" /><rect y="3" x="6" rx="0" width="0.018000001" height="3" fill="white" /><rect y="7" x="5" rx="0" width="20" height="5" fill="black" /><rect y="8" x="6" rx="0" width="0.0" height="3" fill="white" /><rect y="12" x="5" rx="0" width="20" height="5" fill="black" /><rect y="13" x="6" rx="0" width="17.676" height="3" fill="white" /><text y="170" x="2">1.1</text><g transform="translate(15,150)"><g stroke="green" transform="rotate(446.6)"><line x2="0" y2="10" x1="0" y1="0" stroke-width="3" /><line x2="10" y2="0" x1="0" y1="0" stroke-width="3" /></g></g><rect x="3" y="145.0" fill="blue" width="25" height="0.0" /><text x="5" y="140">0.0</text><text x="2" y="190">18/15</text></g><g height="400" width="30" transform="translate(90,0)"><rect y="2" x="5" rx="0" width="20" height="5" fill="black" /><rect y="3" x="6" rx="0" width="9.09" height="3" fill="white" /><rect y="7" x="5" rx="0" width="20" height="5" fill="black" /><rect y="8" x="6" rx="0" width="0.0" height="3" fill="white" /><rect y="12" x="5" rx="0" width="20" height="5" fill="black" /><rect y="13" x="6" rx="0" width="13.697999" height="3" fill="white" /><text y="170" x="2">0.8</text><g transform="translate(15,150)"><g stroke="green" transform="rotate(413.9)"><line x2="0" y2="10" x1="0" y1="0" stroke-width="3" /><line x2="10" y2="0" x1="0" y1="0" stroke-width="3" /></g></g><rect x="3" y="145.0" fill="blue" width="25" height="0.0" /><text x="5" y="140">0.0</text><text x="2" y="190">19/15</text></g><g height="400" width="30" transform="translate(120,0)"><rect y="2" x="5" rx="0" width="20" height="5" fill="black" /><rect y="3" x="6" rx="0" width="15.444" height="3" fill="white" /><rect y="7" x="5" rx="0" width="20" height="5" fill="black" /><rect y="8" x="6" rx="0" width="5.742" height="3" fill="white" /><rect y="12" x="5" rx="0" width="20" height="5" fill="black" /><rect y="13" x="6" rx="0" width="17.874" height="3" fill="white" /><text y="170" x="2">1.5</text><g transform="translate(15,150)"><g stroke="green" transform="rotate(394.8)"><line x2="0" y2="10" x1="0" y1="0" stroke-width="3" /><line x2="10" y2="0" x1="0" y1="0" stroke-width="3" /></g></g><rect x="3" y="145.0" fill="blue" width="25" height="0.0" /><text x="5" y="140">0.0</text><text x="2" y="190">20/15</text></g><g height="400" width="30" transform="translate(150,0)"><rect y="2" x="5" rx="0" width="20" height="5" fill="black" /><rect y="3" x="6" rx="0" width="17.028" height="3" fill="white" /><rect y="7" x="5" rx="0" width="20" height="5" fill="black" /><rect y="8" x="6" rx="0" width="0.0" height="3" fill="white" /><rect y="12" x="5" rx="0" width="20" height="5" fill="black" /><rect y="13" x="6" rx="0" width="10.547999" height="3" fill="white" /><text y="170" x="2">1.6</text><g transform="translate(15,150)"><g stroke="green" transform="rotate(415.8)"><line x2="0" y2="10" x1="0" y1="0" stroke-width="3" /><line x2="10" y2="0" x1="0" y1="0" stroke-width="3" /></g></g><rect x="3" y="145.0" fill="blue" width="25" height="0.0" /><text x="5" y="140">0.0</text><text x="2" y="190">21/15</text></g><g height="400" width="30" transform="translate(180,0)"><rect y="2" x="5" rx="0" width="20" height="5" fill="black" /><rect y="3" x="6" rx="0" width="17.928" height="3" fill="white" /><rect y="7" x="5" rx="0" width="20" height="5" fill="black" /><rect y="8" x="6" rx="0" width="0.0" height="3" fill="white" /><rect y="12" x="5" rx="0" width="20" height="5" fill="black" /><rect y="13" x="6" rx="0" width="10.656" height="3" fill="white" /><text y="170" x="2">1.5</text><g transform="translate(15,150)"><g stroke="green" transform="rotate(414.1)"><line x2="0" y2="10" x1="0" y1="0" stroke-width="3" /><line x2="10" y2="0" x1="0" y1="0" stroke-width="3" /></g></g><rect x="3" y="145.0" fill="blue" width="25" height="0.0" /><text x="5" y="140">0.0</text><text x="2" y="190">22/15</text></g><g height="400" width="30" transform="translate(210,0)"><rect y="2" x="5" rx="0" width="20" height="5" fill="black" /><rect y="3" x="6" rx="0" width="18.0" height="3" fill="white" /><rect y="7" x="5" rx="0" width="20" height="5" fill="black" /><rect y="8" x="6" rx="0" width="0.0" height="3" fill="white" /><rect y="12" x="5" rx="0" width="20" height="5" fill="black" /><rect y="13" x="6" rx="0" width="3.798" height="3" fill="white" /><text y="170" x="2">1.5</text><g transform="translate(15,150)"><g stroke="green" transform="rotate(402.4)"><line x2="0" y2="10" x1="0" y1="0" stroke-width="3" /><line x2="10" y2="0" x1="0" y1="0" stroke-width="3" /></g></g><rect x="3" y="145.0" fill="blue" width="25" height="0.0" /><text x="5" y="140">0.0</text><text x="2" y="190">23/15</text></g><g height="400" width="30" transform="translate(240,0)"><rect y="2" x="5" rx="0" width="20" height="5" fill="black" /><rect y="3" x="6" rx="0" width="18.0" height="3" fill="white" /><rect y="7" x="5" rx="0" width="20" height="5" fill="black" /><rect y="8" x="6" rx="0" width="7.488" height="3" fill="white" /><rect y="12" x="5" rx="0" width="20" height="5" fill="black" /><rect y="13" x="6" rx="0" width="6.552" height="3" fill="white" /><text y="170" x="2">1.2</text><g transform="translate(15,150)"><g stroke="green" transform="rotate(404.9)"><line x2="0" y2="10" x1="0" y1="0" stroke-width="3" /><line x2="10" y2="0" x1="0" y1="0" stroke-width="3" /></g></g><rect x="3" y="145.0" fill="blue" width="25" height="0.0" /><text x="5" y="140">0.0</text><text x="2" y="190">0/16</text></g><g height="400" width="30" transform="translate(270,0)"><rect y="2" x="5" rx="0" width="20" height="5" fill="black" /><rect y="3" x="6" rx="0" width="18.0" height="3" fill="white" /><rect y="7" x="5" rx="0" width="20" height="5" fill="black" /><rect y="8" x="6" rx="0" width="10.457999" height="3" fill="white" /><rect y="12" x="5" rx="0" width="20" height="5" fill="black" /><rect y="13" x="6" rx="0" width="16.902" height="3" fill="white" /><text y="170" x="2">0.8</text><g transform="translate(15,150)"><g stroke="green" transform="rotate(403.2)"><line x2="0" y2="10" x1="0" y1="0" stroke-width="3" /><line x2="10" y2="0" x1="0" y1="0" stroke-width="3" /></g></g><rect x="3" y="145.0" fill="blue" width="25" height="0.0" /><text x="5" y="140">0.0</text><text x="2" y="190">1/16</text></g><g height="400" width="30" transform="translate(300,0)"><rect y="2" x="5" rx="0" width="20" height="5" fill="black" /><rect y="3" x="6" rx="0" width="18.0" height="3" fill="white" /><rect y="7" x="5" rx="0" width="20" height="5" fill="black" /><rect y="8" x="6" rx="0" width="0.0" height="3" fill="white" /><rect y="12" x="5" rx="0" width="20" height="5" fill="black" /><rect y="13" x="6" rx="0" width="18.0" height="3" fill="white" /><text y="170" x="2">0.4</text><g transform="translate(15,150)"><g stroke="green" transform="rotate(415.8)"><line x2="0" y2="10" x1="0" y1="0" stroke-width="3" /><line x2="10" y2="0" x1="0" y1="0" stroke-width="3" /></g></g><rect x="3" y="145.0" fill="blue" width="25" height="0.0" /><text x="5" y="140">0.0</text><text x="2" y="190">2/16</text></g><g height="400" width="30" transform="translate(330,0)"><rect y="2" x="5" rx="0" width="20" height="5" fill="black" /><rect y="3" x="6" rx="0" width="17.424" height="3" fill="white" /><rect y="7" x="5" rx="0" width="20" height="5" fill="black" /><rect y="8" x="6" rx="0" width="4.3919997" height="3" fill="white" /><rect y="12" x="5" rx="0" width="20" height="5" fill="black" /><rect y="13" x="6" rx="0" width="18.0" height="3" fill="white" /><text y="170" x="2">1.1</text><g transform="translate(15,150)"><g stroke="green" transform="rotate(417.8)"><line x2="0" y2="10" x1="0" y1="0" stroke-width="3" /><line x2="10" y2="0" x1="0" y1="0" stroke-width="3" /></g></g><rect x="3" y="145.0" fill="blue" width="25" height="0.0" /><text x="5" y="140">0.0</text><text x="2" y="190">3/16</text></g><g height="400" width="30" transform="translate(360,0)"><rect y="2" x="5" rx="0" width="20" height="5" fill="black" /><rect y="3" x="6" rx="0" width="10.296" height="3" fill="white" /><rect y="7" x="5" rx="0" width="20" height="5" fill="black" /><rect y="8" x="6" rx="0" width="0.0" height="3" fill="white" /><rect y="12" x="5" rx="0" width="20" height="5" fill="black" /><rect y="13" x="6" rx="0" width="18.0" height="3" fill="white" /><text y="170" x="2">1.3</text><g transform="translate(15,150)"><g stroke="green" transform="rotate(450.8)"><line x2="0" y2="10" x1="0" y1="0" stroke-width="3" /><line x2="10" y2="0" x1="0" y1="0" stroke-width="3" /></g></g><rect x="3" y="145.0" fill="blue" width="25" height="0.0" /><text x="5" y="140">0.0</text><text x="2" y="190">4/16</text></g><g height="400" width="30" transform="translate(390,0)"><rect y="2" x="5" rx="0" width="20" height="5" fill="black" /><rect y="3" x="6" rx="0" width="2.556" height="3" fill="white" /><rect y="7" x="5" rx="0" width="20" height="5" fill="black" /><rect y="8" x="6" rx="0" width="0.0" height="3" fill="white" /><rect y="12" x="5" rx="0" width="20" height="5" fill="black" /><rect y="13" x="6" rx="0" width="18.0" height="3" fill="white" /><text y="170" x="2">1.3</text><g transform="translate(15,150)"><g stroke="green" transform="rotate(445.1)"><line x2="0" y2="10" x1="0" y1="0" stroke-width="3" /><line x2="10" y2="0" x1="0" y1="0" stroke-width="3" /></g></g><rect x="3" y="145.0" fill="blue" width="25" height="0.0" /><text x="5" y="140">0.0</text><text x="2" y="190">5/16</text></g><g height="400" width="30" transform="translate(420,0)"><rect y="2" x="5" rx="0" width="20" height="5" fill="black" /><rect y="3" x="6" rx="0" width="4.788" height="3" fill="white" /><rect y="7" x="5" rx="0" width="20" height="5" fill="black" /><rect y="8" x="6" rx="0" width="0.0" height="3" fill="white" /><rect y="12" x="5" rx="0" width="20" height="5" fill="black" /><rect y="13" x="6" rx="0" width="18.0" height="3" fill="white" /><text y="170" x="2">0.6</text><g transform="translate(15,150)"><g stroke="green" transform="rotate(421.2)"><line x2="0" y2="10" x1="0" y1="0" stroke-width="3" /><line x2="10" y2="0" x1="0" y1="0" stroke-width="3" /></g></g><rect x="3" y="145.0" fill="blue" width="25" height="0.0" /><text x="5" y="140">0.0</text><text x="2" y="190">6/16</text></g><g height="400" width="30" transform="translate(450,0)"><rect y="2" x="5" rx="0" width="20" height="5" fill="black" /><rect y="3" x="6" rx="0" width="3.456" height="3" fill="white" /><rect y="7" x="5" rx="0" width="20" height="5" fill="black" /><rect y="8" x="6" rx="0" width="0.0" height="3" fill="white" /><rect y="12" x="5" rx="0" width="20" height="5" fill="black" /><rect y="13" x="6" rx="0" width="18.0" height="3" fill="white" /><text y="170" x="2">0.9</text><g transform="translate(15,150)"><g stroke="green" transform="rotate(423.6)"><line x2="0" y2="10" x1="0" y1="0" stroke-width="3" /><line x2="10" y2="0" x1="0" y1="0" stroke-width="3" /></g></g><rect x="3" y="145.0" fill="blue" width="25" height="0.0" /><text x="5" y="140">0.0</text><text x="2" y="190">7/16</text></g><g height="400" width="30" transform="translate(480,0)"><rect y="2" x="5" rx="0" width="20" height="5" fill="black" /><rect y="3" x="6" rx="0" width="2.214" height="3" fill="white" /><rect y="7" x="5" rx="0" width="20" height="5" fill="black" /><rect y="8" x="6" rx="0" width="0.0" height="3" fill="white" /><rect y="12" x="5" rx="0" width="20" height="5" fill="black" /><rect y="13" x="6" rx="0" width="18.0" height="3" fill="white" /><text y="170" x="2">1.1</text><g transform="translate(15,150)"><g stroke="green" transform="rotate(433.0)"><line x2="0" y2="10" x1="0" y1="0" stroke-width="3" /><line x2="10" y2="0" x1="0" y1="0" stroke-width="3" /></g></g><rect x="3" y="145.0" fill="blue" width="25" height="0.0" /><text x="5" y="140">0.0</text><text x="2" y="190">8/16</text></g><g height="400" width="30" transform="translate(510,0)"><rect y="2" x="5" rx="0" width="20" height="5" fill="black" /><rect y="3" x="6" rx="0" width="4.482" height="3" fill="white" /><rect y="7" x="5" rx="0" width="20" height="5" fill="black" /><rect y="8" x="6" rx="0" width="0.0" height="3" fill="white" /><rect y="12" x="5" rx="0" width="20" height="5" fill="black" /><rect y="13" x="6" rx="0" width="18.0" height="3" fill="white" /><text y="170" x="2">1.2</text><g transform="translate(15,150)"><g stroke="green" transform="rotate(406.1)"><line x2="0" y2="10" x1="0" y1="0" stroke-width="3" /><line x2="10" y2="0" x1="0" y1="0" stroke-width="3" /></g></g><rect x="3" y="145.0" fill="blue" width="25" height="0.0" /><text x="5" y="140">0.0</text><text x="2" y="190">9/16</text></g><g height="400" width="30" transform="translate(540,0)"><rect y="2" x="5" rx="0" width="20" height="5" fill="black" /><rect y="3" x="6" rx="0" width="0.378" height="3" fill="white" /><rect y="7" x="5" rx="0" width="20" height="5" fill="black" /><rect y="8" x="6" rx="0" width="0.82799995" height="3" fill="white" /><rect y="12" x="5" rx="0" width="20" height="5" fill="black" /><rect y="13" x="6" rx="0" width="18.0" height="3" fill="white" /><text y="170" x="2">1.0</text><g transform="translate(15,150)"><g stroke="green" transform="rotate(417.6)"><line x2="0" y2="10" x1="0" y1="0" stroke-width="3" /><line x2="10" y2="0" x1="0" y1="0" stroke-width="3" /></g></g><rect x="3" y="145.0" fill="blue" width="25" height="0.0" /><text x="5" y="140">0.0</text><text x="2" y="190">10/16</text></g><g height="400" width="30" transform="translate(570,0)"><rect y="2" x="5" rx="0" width="20" height="5" fill="black" /><rect y="3" x="6" rx="0" width="0.48600003" height="3" fill="white" /><rect y="7" x="5" rx="0" width="20" height="5" fill="black" /><rect y="8" x="6" rx="0" width="17.118" height="3" fill="white" /><rect y="12" x="5" rx="0" width="20" height="5" fill="black" /><rect y="13" x="6" rx="0" width="18.0" height="3" fill="white" /><text y="170" x="2">0.5</text><g transform="translate(15,150)"><g stroke="green" transform="rotate(425.0)"><line x2="0" y2="10" x1="0" y1="0" stroke-width="3" /><line x2="10" y2="0" x1="0" y1="0" stroke-width="3" /></g></g><rect x="3" y="145.0" fill="blue" width="25" height="0.0" /><text x="5" y="140">0.0</text><text x="2" y="190">11/16</text></g><g height="400" width="30" transform="translate(600,0)"><rect y="2" x="5" rx="0" width="20" height="5" fill="black" /><rect y="3" x="6" rx="0" width="11.3220005" height="3" fill="white" /><rect y="7" x="5" rx="0" width="20" height="5" fill="black" /><rect y="8" x="6" rx="0" width="17.496" height="3" fill="white" /><rect y="12" x="5" rx="0" width="20" height="5" fill="black" /><rect y="13" x="6" rx="0" width="16.704" height="3" fill="white" /><text y="170" x="2">0.7</text><g transform="translate(15,150)"><g stroke="green" transform="rotate(441.8)"><line x2="0" y2="10" x1="0" y1="0" stroke-width="3" /><line x2="10" y2="0" x1="0" y1="0" stroke-width="3" /></g></g><rect x="3" y="145.0" fill="blue" width="25" height="0.0" /><text x="5" y="140">0.0</text><text x="2" y="190">12/16</text></g><g height="400" width="30" transform="translate(630,0)"><rect y="2" x="5" rx="0" width="20" height="5" fill="black" /><rect y="3" x="6" rx="0" width="11.682001" height="3" fill="white" /><rect y="7" x="5" rx="0" width="20" height="5" fill="black" /><rect y="8" x="6" rx="0" width="18.0" height="3" fill="white" /><rect y="12" x="5" rx="0" width="20" height="5" fill="black" /><rect y="13" x="6" rx="0" width="16.506" height="3" fill="white" /><text y="170" x="2">0.8</text><g transform="translate(15,150)"><g stroke="green" transform="rotate(436.3)"><line x2="0" y2="10" x1="0" y1="0" stroke-width="3" /><line x2="10" y2="0" x1="0" y1="0" stroke-width="3" /></g></g><rect x="3" y="144.8" fill="blue" width="25" height="0.2" /><text x="5" y="140">0.1</text><text x="2" y="190">13/16</text></g><g height="400" width="30" transform="translate(660,0)"><rect y="2" x="5" rx="0" width="20" height="5" fill="black" /><rect y="3" x="6" rx="0" width="17.892" height="3" fill="white" /><rect y="7" x="5" rx="0" width="20" height="5" fill="black" /><rect y="8" x="6" rx="0" width="16.56" height="3" fill="white" /><rect y="12" x="5" rx="0" width="20" height="5" fill="black" /><rect y="13" x="6" rx="0" width="17.657999" height="3" fill="white" /><text y="170" x="2">0.6</text><g transform="translate(15,150)"><g stroke="green" transform="rotate(441.9)"><line x2="0" y2="10" x1="0" y1="0" stroke-width="3" /><line x2="10" y2="0" x1="0" y1="0" stroke-width="3" /></g></g><rect x="3" y="144.0" fill="blue" width="25" height="1.0" /><text x="5" y="140">0.5</text><text x="2" y="190">14/16</text></g><g height="400" width="30" transform="translate(690,0)"><rect y="2" x="5" rx="0" width="20" height="5" fill="black" /><rect y="3" x="6" rx="0" width="18.0" height="3" fill="white" /><rect y="7" x="5" rx="0" width="20" height="5" fill="black" /><rect y="8" x="6" rx="0" width="17.982" height="3" fill="white" /><rect y="12" x="5" rx="0" width="20" height="5" fill="black" /><rect y="13" x="6" rx="0" width="17.964" height="3" fill="white" /><text y="170" x="2">0.6</text><g transform="translate(15,150)"><g stroke="green" transform="rotate(450.8)"><line x2="0" y2="10" x1="0" y1="0" stroke-width="3" /><line x2="10" y2="0" x1="0" y1="0" stroke-width="3" /></g></g><rect x="3" y="144.2" fill="blue" width="25" height="0.8" /><text x="5" y="140">0.4</text><text x="2" y="190">15/16</text></g><g transform="translate(0,2)"><rect y="60" x="0" width="720" height="0.5" stroke="black" /><rect y="42.6" x="0" width="720" height="0.2" stroke="green" /><text y="47.6" x="725">max 5.8c</text><polyline points="15,50 45,52 75,53 105,53 135,54 165,54 195,55 225,57 255,59 285,60 315,59 345,58 375,58 405,58 435,57 465,57 495,56 525,55 555,54 585,52 615,48 645,45 675,42 705,42" stroke="red" fill="none" /></g></svg>
