<?xml version="1.0" encoding="UTF-8"?>
<svg height="200"><g height="130" width="30" transform="translate(0,0)"><rect y="2" x="5" rx="0" width="20" height="5" fill="black" /><rect y="3" x="6" rx="0" width="18.0" height="3" fill="white" /><rect y="7" x="5" rx="0" width="20" height="5" fill="black" /><rect y="8" x="6" rx="0" width="6.75" height="3" fill="white" /><rect y="12" x="5" rx="0" width="20" height="5" fill="black" /><rect y="13" x="6" rx="0" width="18.0" height="3" fill="white" /><text y="97" x="2">3.4</text><g transform="translate(15,80)"><g stroke="green" transform="rotate(91.3)"><line x2="0" y2="10" x1="0" y1="0" stroke-width="3" /><line x2="10" y2="0" x1="0" y1="0" stroke-width="3" /></g></g><rect x="3" y="80" fill="blue" width="25" height="-0.0" /><text x="5" y="70">0.0</text><text x="2" y="120">13/1</text></g><g height="130" width="30" transform="translate(30,0)"><rect y="2" x="5" rx="0" width="20" height="5" fill="black" /><rect y="3" x="6" rx="0" width="18.0" height="3" fill="white" /><rect y="7" x="5" rx="0" width="20" height="5" fill="black" /><rect y="8" x="6" rx="0" width="17.676" height="3" fill="white" /><rect y="12" x="5" rx="0" width="20" height="5" fill="black" /><rect y="13" x="6" rx="0" width="18.0" height="3" fill="white" /><text y="97" x="2">3.6</text><g transform="translate(15,80)"><g stroke="green" transform="rotate(83.899994)"><line x2="0" y2="10" x1="0" y1="0" stroke-width="3" /><line x2="10" y2="0" x1="0" y1="0" stroke-width="3" /></g></g><rect x="3" y="80" fill="blue" width="25" height="-0.0" /><text x="5" y="70">0.0</text><text x="2" y="120">14/1</text></g><g height="130" width="30" transform="translate(60,0)"><rect y="2" x="5" rx="0" width="20" height="5" fill="black" /><rect y="3" x="6" rx="0" width="18.0" height="3" fill="white" /><rect y="7" x="5" rx="0" width="20" height="5" fill="black" /><rect y="8" x="6" rx="0" width="15.696" height="3" fill="white" /><rect y="12" x="5" rx="0" width="20" height="5" fill="black" /><rect y="13" x="6" rx="0" width="18.0" height="3" fill="white" /><text y="97" x="2">3.0</text><g transform="translate(15,80)"><g stroke="green" transform="rotate(85.8)"><line x2="0" y2="10" x1="0" y1="0" stroke-width="3" /><line x2="10" y2="0" x1="0" y1="0" stroke-width="3" /></g></g><rect x="3" y="80" fill="blue" width="25" height="-0.2" /><text x="5" y="70">0.1</text><text x="2" y="120">15/1</text></g><g height="130" width="30" transform="translate(90,0)"><rect y="2" x="5" rx="0" width="20" height="5" fill="black" /><rect y="3" x="6" rx="0" width="18.0" height="3" fill="white" /><rect y="7" x="5" rx="0" width="20" height="5" fill="black" /><rect y="8" x="6" rx="0" width="17.028" height="3" fill="white" /><rect y="12" x="5" rx="0" width="20" height="5" fill="black" /><rect y="13" x="6" rx="0" width="18.0" height="3" fill="white" /><text y="97" x="2">2.5</text><g transform="translate(15,80)"><g stroke="green" transform="rotate(98.0)"><line x2="0" y2="10" x1="0" y1="0" stroke-width="3" /><line x2="10" y2="0" x1="0" y1="0" stroke-width="3" /></g></g><rect x="3" y="80" fill="blue" width="25" height="-0.2" /><text x="5" y="70">0.1</text><text x="2" y="120">16/1</text></g><g height="130" width="30" transform="translate(120,0)"><rect y="2" x="5" rx="0" width="20" height="5" fill="black" /><rect y="3" x="6" rx="0" width="18.0" height="3" fill="white" /><rect y="7" x="5" rx="0" width="20" height="5" fill="black" /><rect y="8" x="6" rx="0" width="2.088" height="3" fill="white" /><rect y="12" x="5" rx="0" width="20" height="5" fill="black" /><rect y="13" x="6" rx="0" width="18.0" height="3" fill="white" /><text y="97" x="2">1.6</text><g transform="translate(15,80)"><g stroke="green" transform="rotate(84.600006)"><line x2="0" y2="10" x1="0" y1="0" stroke-width="3" /><line x2="10" y2="0" x1="0" y1="0" stroke-width="3" /></g></g><rect x="3" y="80" fill="blue" width="25" height="-0.2" /><text x="5" y="70">0.1</text><text x="2" y="120">17/1</text></g><g height="130" width="30" transform="translate(150,0)"><rect y="2" x="5" rx="0" width="20" height="5" fill="black" /><rect y="3" x="6" rx="0" width="18.0" height="3" fill="white" /><rect y="7" x="5" rx="0" width="20" height="5" fill="black" /><rect y="8" x="6" rx="0" width="7.5420003" height="3" fill="white" /><rect y="12" x="5" rx="0" width="20" height="5" fill="black" /><rect y="13" x="6" rx="0" width="18.0" height="3" fill="white" /><text y="97" x="2">1.9</text><g transform="translate(15,80)"><g stroke="green" transform="rotate(45.300003)"><line x2="0" y2="10" x1="0" y1="0" stroke-width="3" /><line x2="10" y2="0" x1="0" y1="0" stroke-width="3" /></g></g><rect x="3" y="80" fill="blue" width="25" height="-0.4" /><text x="5" y="70">0.2</text><text x="2" y="120">18/1</text></g><g transform="translate(0,15)"><polyline points="15,25 45,25 75,25 105,26 135,27 165,27" stroke="red" /><rect y="25" x="0" width="180" height="1" stroke="black" /><rect y="27.2" x="0" width="180" height=".3" stroke="orange" /><text y="32.2" x="185">-1.1c</text></g></svg>
